HIERARCHY
ROOT Hips
{
	OFFSET 0.00000 0.00000 0.00000
	CHANNELS 6 Xposition Yposition Zposition Zrotation Yrotation Xrotation 
	JOINT LHipJoint
	{
		OFFSET 0 0 0
		CHANNELS 3 Zrotation Yrotation Xrotation
		JOINT LeftUpLeg
		{
			OFFSET 1.58895 -1.83665 0.71753
			CHANNELS 3 Zrotation Yrotation Xrotation
			JOINT LeftLeg
			{
				OFFSET 2.50528 -6.88321 0.00000
				CHANNELS 3 Zrotation Yrotation Xrotation
				JOINT LeftFoot
				{
					OFFSET 2.63244 -7.23257 0.00000
					CHANNELS 3 Zrotation Yrotation Xrotation
					JOINT LeftToeBase
					{
						OFFSET 0.23691 -0.65090 1.72750
						CHANNELS 3 Zrotation Yrotation Xrotation
						End Site
						{
							OFFSET 0.00000 -0.00000 0.92561
						}
					}
				}
			}
		}
	}
	JOINT RHipJoint
	{
		OFFSET 0 0 0
		CHANNELS 3 Zrotation Yrotation Xrotation
		JOINT RightUpLeg
		{
			OFFSET -1.51435 -1.83665 0.71753
			CHANNELS 3 Zrotation Yrotation Xrotation
			JOINT RightLeg
			{
				OFFSET -2.54551 -6.99375 0.00000
				CHANNELS 3 Zrotation Yrotation Xrotation
				JOINT RightFoot
				{
					OFFSET -2.66027 -7.30903 0.00000
					CHANNELS 3 Zrotation Yrotation Xrotation
					JOINT RightToeBase
					{
						OFFSET -0.22981 -0.63138 2.03959
						CHANNELS 3 Zrotation Yrotation Xrotation
						End Site
						{
							OFFSET -0.00000 -0.00000 1.07060
						}
					}
				}
			}
		}
	}
	JOINT LowerBack
	{
		OFFSET 0 0 0
		CHANNELS 3 Zrotation Yrotation Xrotation
		JOINT Spine
		{
			OFFSET -0.02651 1.86275 -0.11152
			CHANNELS 3 Zrotation Yrotation Xrotation
			JOINT Spine1
			{
				OFFSET 0.01019 1.86224 0.04087
				CHANNELS 3 Zrotation Yrotation Xrotation
				JOINT Neck
				{
					OFFSET 0 0 0
					CHANNELS 3 Zrotation Yrotation Xrotation
					JOINT Neck1
					{
						OFFSET -0.01926 1.80512 0.08867
						CHANNELS 3 Zrotation Yrotation Xrotation
						JOINT Head
						{
							OFFSET 0.05516 1.76451 -0.38475
							CHANNELS 3 Zrotation Yrotation Xrotation
							End Site
							{
								OFFSET 0.01592 1.82587 -0.14001
							}
						}
					}
				}
				JOINT LeftShoulder
				{
					OFFSET 0 0 0
					CHANNELS 3 Zrotation Yrotation Xrotation
					JOINT LeftArm
					{
						OFFSET 3.47116 1.51376 0.14491
						CHANNELS 3 Zrotation Yrotation Xrotation
						JOINT LeftForeArm
						{
							OFFSET 4.78095 -0.00000 0.00000
							CHANNELS 3 Zrotation Yrotation Xrotation
							JOINT LeftHand
							{
								OFFSET 3.58615 -0.00000 -0.00000
								CHANNELS 3 Zrotation Yrotation Xrotation
								JOINT LeftFingerBase
								{
									OFFSET 0 0 0
									CHANNELS 3 Zrotation Yrotation Xrotation
									JOINT LeftHandIndex1
									{
										OFFSET 0.65981 -0.00000 0.00000
										CHANNELS 3 Zrotation Yrotation Xrotation
										End Site
										{
											OFFSET 0.53196 -0.00000 0.00000
										}
									}
								}
								JOINT LThumb
								{
									OFFSET 0 0 0
									CHANNELS 3 Zrotation Yrotation Xrotation
									End Site
									{
										OFFSET 0.54008 -0.00000 0.54008
									}
								}
							}
						}
					}
				}
				JOINT RightShoulder
				{
					OFFSET 0 0 0
					CHANNELS 3 Zrotation Yrotation Xrotation
					JOINT RightArm
					{
						OFFSET -3.31725 1.61216 0.35156
						CHANNELS 3 Zrotation Yrotation Xrotation
						JOINT RightForeArm
						{
							OFFSET -4.48913 -0.00000 0.00000
							CHANNELS 3 Zrotation Yrotation Xrotation
							JOINT RightHand
							{
								OFFSET -3.70510 -0.00000 0.00000
								CHANNELS 3 Zrotation Yrotation Xrotation
								JOINT RightFingerBase
								{
									OFFSET 0 0 0
									CHANNELS 3 Zrotation Yrotation Xrotation
									JOINT RightHandIndex1
									{
										OFFSET -0.44914 -0.00000 0.00000
										CHANNELS 3 Zrotation Yrotation Xrotation
										End Site
										{
											OFFSET -0.36211 -0.00000 0.00000
										}
									}
								}
								JOINT RThumb
								{
									OFFSET 0 0 0
									CHANNELS 3 Zrotation Yrotation Xrotation
									End Site
									{
										OFFSET -0.36763 -0.00000 0.36763
									}
								}
							}
						}
					}
				}
			}
		}
	}
}
MOTION
Frames: 9
Frame Time: .0083333
-0.6914 18.7221 5.5148 -2.0507 -6.7397 2.3528 0.0000 0.0000 0.0000 -12.0986 -3.0921 -5.4586 1.4656 7.6509 21.6585 1.4353 6.4770 -25.7936 8.3172 -16.3477 -53.6974 0.0000 0.0000 0.0000 0.0000 0.0000 0.0000 0.0000 0.0000 0.0000 -0.0000 -0.0000 0.0000 -0.0000 -0.0000 0.0000 -0.2327 -0.5170 13.7112 0.8230 -0.6850 3.4337 1.1090 -0.3401 -4.0535 -0.4163 -0.9816 0.2116 3.1359 -1.3103 0.0206 1.0255 -0.6570 -0.0040 -0.0000 0.0000 0.0000 -85.7282 14.9509 28.6707 32.2267 -42.7271 -12.8944 -0.0000 -0.0000 0.3965 8.0723 -25.8787 -3.5423 -7.1250 0.0000 -0.0000 -13.0900 4.4469 12.3694 -0.0000 0.0000 0.0000 24.6851 20.4214 18.0092 -156.3342 34.8088 -112.4851 0.0000 -0.0000 -68.2071 27.5556 -53.8330 -22.8433 7.1250 -0.0000 -0.0000 89.7915 -62.5749 -58.5064
-0.6915 18.7200 5.5190 -2.0770 -6.6386 2.3087 0.0000 0.0000 0.0000 -12.0546 -3.0445 -5.4526 1.4700 7.6618 21.6914 1.4304 6.3370 -25.6702 8.3029 -16.3376 -53.6465 0.0000 0.0000 0.0000 0.0000 0.0000 0.0000 0.0000 0.0000 0.0000 -0.0000 -0.0000 0.0000 -0.0000 -0.0000 0.0000 -0.1436 -0.4982 13.5329 0.8222 -0.6482 3.4138 1.0494 -0.3227 -3.9791 -0.3881 -0.9818 0.3137 3.0890 -1.3210 0.4540 1.0053 -0.6589 0.1108 -0.0000 0.0000 0.0000 -85.6566 14.9868 28.8399 32.3603 -42.8326 -12.9851 -0.0000 -0.0000 0.2895 7.9667 -25.8459 -3.4913 -7.1250 0.0000 -0.0000 -13.1525 4.4899 12.4209 -0.0000 0.0000 0.0000 25.0235 20.0631 18.5560 -156.3520 34.7898 -112.4953 0.0000 -0.0000 -68.7598 25.7782 -54.0063 -21.3429 7.1250 -0.0000 -0.0000 89.1105 -63.1629 -58.6138
-0.6927 18.7182 5.5217 -2.1343 -6.5665 2.2769 0.0000 0.0000 0.0000 -11.9796 -3.0460 -5.4439 1.4756 7.6757 21.7333 1.4321 6.2553 -25.6328 8.2955 -16.3324 -53.6203 0.0000 0.0000 0.0000 0.0000 0.0000 0.0000 0.0000 0.0000 0.0000 -0.0000 -0.0000 0.0000 -0.0000 -0.0000 0.0000 -0.0393 -0.4447 13.3380 0.8488 -0.5628 3.4195 1.0018 -0.2816 -3.8693 -0.5263 -0.9931 0.3641 3.1769 -1.3471 0.8648 1.0554 -0.6686 0.2300 -0.0000 -0.0000 0.0000 -85.5703 14.9836 29.1387 32.4975 -42.9402 -13.0785 -0.0000 -0.0000 0.1576 7.8737 -25.8838 -3.4548 -7.1250 0.0000 -0.0000 -13.2090 4.4626 12.4842 -0.0000 -0.0000 0.0000 25.3275 19.6493 19.0587 -156.3572 34.7842 -112.4982 0.0000 -0.0000 -69.4328 22.8991 -53.8250 -18.8277 7.1250 -0.0000 -0.0000 87.1694 -64.0181 -57.7340
-0.6937 18.7167 5.5235 -2.1824 -6.5195 2.2237 0.0000 0.0000 0.0000 -11.9220 -3.0175 -5.4167 1.4812 7.6897 21.7754 1.4304 6.2307 -25.6048 8.3229 -16.3517 -53.7175 0.0000 0.0000 0.0000 0.0000 0.0000 0.0000 0.0000 0.0000 0.0000 -0.0000 -0.0000 0.0000 -0.0000 -0.0000 0.0000 0.0423 -0.3943 13.2043 0.8759 -0.4849 3.4285 0.9698 -0.2438 -3.7888 -0.6758 -0.9876 0.3417 3.2288 -1.3517 1.2983 1.0962 -0.6671 0.3679 0.0000 0.0000 0.0000 -85.4852 14.9867 29.4507 32.6342 -43.0470 -13.1717 -0.0000 -0.0000 0.0537 7.8387 -25.8390 -3.4338 -7.1250 0.0000 -0.0000 -13.2289 4.5100 12.4921 0.0000 0.0000 0.0000 25.5778 19.3407 19.5309 -156.2942 34.8516 -112.4622 0.0000 -0.0000 -69.8556 21.5155 -53.7667 -17.6400 7.1250 -0.0000 -0.0000 86.2851 -64.4381 -57.3892
-0.6932 18.7152 5.5262 -2.2241 -6.4723 2.1431 0.0000 0.0000 0.0000 -11.8745 -2.9362 -5.3753 1.4870 7.7039 21.8182 1.4235 6.1806 -25.5221 8.3462 -16.3681 -53.8004 0.0000 0.0000 0.0000 0.0000 0.0000 0.0000 0.0000 0.0000 0.0000 -0.0000 -0.0000 0.0000 -0.0000 -0.0000 0.0000 0.1343 -0.3724 13.1001 0.8816 -0.4441 3.4326 0.9161 -0.2243 -3.7291 -0.6356 -0.9919 0.3670 3.0920 -1.3656 1.6885 1.0464 -0.6711 0.4819 -0.0000 -0.0000 0.0000 -85.3821 15.0344 29.6799 32.7551 -43.1410 -13.2543 -0.0000 -0.0000 0.0123 7.8328 -25.8072 -3.4273 -7.1250 0.0000 -0.0000 -13.2317 4.5416 12.4868 -0.0000 -0.0000 0.0000 25.8988 19.1696 20.0368 -156.1685 34.9856 -112.3903 0.0000 -0.0000 -69.9539 21.5448 -53.8497 -17.6824 7.1250 -0.0000 -0.0000 86.4627 -64.4486 -57.5934
-0.6916 18.7133 5.5287 -2.2759 -6.4216 2.0617 0.0000 0.0000 0.0000 -11.8200 -2.9142 -5.3085 1.4919 7.7162 21.8553 1.4296 6.0915 -25.5141 8.3253 -16.3534 -53.7261 0.0000 0.0000 0.0000 0.0000 0.0000 0.0000 0.0000 0.0000 0.0000 -0.0000 -0.0000 0.0000 -0.0000 -0.0000 0.0000 0.2498 -0.3504 12.9771 0.9085 -0.3996 3.4399 0.8707 -0.2031 -3.6556 -0.6381 -1.0238 0.4538 2.9444 -1.4137 2.0165 1.0008 -0.6938 0.5677 0.0000 0.0000 0.0000 -85.3477 15.0393 29.8463 32.8060 -43.1804 -13.2892 -0.0000 0.0000 -0.0412 7.7410 -25.7913 -3.3848 -7.1250 0.0000 -0.0000 -13.2863 4.5666 12.5350 0.0000 0.0000 0.0000 26.2251 19.0862 20.5610 -155.9916 35.1732 -112.2886 0.0000 -0.0000 -69.8334 21.4381 -53.9162 -17.6060 7.1250 -0.0000 -0.0000 86.5330 -64.4978 -57.7385
-0.6897 18.7119 5.5305 -2.3442 -6.3860 1.9962 0.0000 0.0000 0.0000 -11.7469 -2.8917 -5.2476 1.4949 7.7236 21.8776 1.4345 6.0252 -25.5102 8.3138 -16.3453 -53.6854 0.0000 0.0000 0.0000 0.0000 0.0000 0.0000 0.0000 0.0000 0.0000 -0.0000 -0.0000 0.0000 -0.0000 -0.0000 0.0000 0.3829 -0.3154 12.8857 0.9477 -0.3348 3.4087 0.8257 -0.1716 -3.6398 -0.7381 -1.0361 0.6068 2.8895 -1.4363 2.3327 1.0011 -0.7049 0.6402 0.0000 -0.0000 0.0000 -85.3703 15.0782 29.9443 32.8408 -43.2073 -13.3129 -0.0000 0.0000 -0.0838 7.6126 -25.6953 -3.3166 -7.1250 0.0000 -0.0000 -13.3612 4.6734 12.5822 0.0000 -0.0000 0.0000 26.5200 18.9870 21.1439 -155.8221 35.3519 -112.1907 0.0000 -0.0000 -69.8775 20.8132 -53.9553 -17.0851 7.1250 -0.0000 -0.0000 86.2645 -64.7040 -57.7454
-0.6886 18.7110 5.5316 -2.3838 -6.3702 1.9575 0.0000 0.0000 0.0000 -11.7036 -2.8574 -5.2164 1.4964 7.7271 21.8883 1.4269 6.0200 -25.4500 8.3343 -16.3597 -53.7581 0.0000 0.0000 0.0000 0.0000 0.0000 0.0000 0.0000 0.0000 0.0000 -0.0000 -0.0000 0.0000 -0.0000 -0.0000 0.0000 0.4507 -0.2770 12.8106 0.9653 -0.2747 3.3695 0.7960 -0.1422 -3.6407 -0.7596 -1.0214 0.6600 2.8305 -1.4239 2.6931 0.9867 -0.6969 0.7417 -0.0000 -0.0000 0.0000 -85.3595 15.1218 30.0096 32.8808 -43.2382 -13.3403 -0.0000 0.0000 -0.1537 7.5216 -25.4903 -3.2522 -7.1250 0.0000 -0.0000 -13.4118 4.8823 12.5787 -0.0000 -0.0000 0.0000 26.8255 18.7617 21.6385 -155.7227 35.4561 -112.1332 0.0000 -0.0000 -70.0226 20.2350 -54.0025 -16.6062 7.1250 -0.0000 -0.0000 86.0397 -64.8977 -57.7807
-0.6881 18.7101 5.5324 -2.3603 -6.3465 1.9235 0.0000 0.0000 0.0000 -11.7306 -2.8604 -5.1832 1.4968 7.7282 21.8916 1.4264 6.0007 -25.4349 8.3301 -16.3568 -53.7432 0.0000 0.0000 0.0000 0.0000 0.0000 0.0000 0.0000 0.0000 0.0000 -0.0000 -0.0000 0.0000 -0.0000 -0.0000 0.0000 0.4443 -0.2416 12.7334 0.9670 -0.2296 3.3666 0.7938 -0.1198 -3.6021 -0.7301 -1.0255 0.5060 2.6848 -1.4360 3.1484 0.9360 -0.6995 0.9068 0.0000 -0.0000 0.0000 -85.3133 15.0893 30.1219 32.9136 -43.2635 -13.3628 -0.0000 0.0000 -0.3224 7.4291 -25.2981 -3.1893 -7.1250 0.0000 -0.0000 -13.4641 5.0790 12.5793 0.0000 -0.0000 0.0000 27.0490 18.5014 21.9605 -155.6835 35.4972 -112.1104 0.0000 -0.0000 -70.0708 19.7996 -54.0998 -16.2581 7.1250 -0.0000 -0.0000 85.9963 -65.0582 -57.9604
